HIERARCHY
ROOT hip
{
  OFFSET 0 0 0
  CHANNELS 6 Xposition Yposition Zposition Zrotation Yrotation Xrotation
  JOINT abdomen
  {
    OFFSET 0 20.6881 -0.73152
    CHANNELS 3 Zrotation Xrotation Yrotation
    JOINT chest
    {
      OFFSET 0 11.7043 -0.48768
      CHANNELS 3 Zrotation Xrotation Yrotation
      JOINT neck
      {
        OFFSET 0 22.1894 -2.19456
        CHANNELS 3 Zrotation Xrotation Yrotation
        JOINT head
        {
          OFFSET -0.24384 7.07133 1.2192
          CHANNELS 3 Zrotation Xrotation Yrotation
          JOINT leftEye
          {
            OFFSET 4.14528 8.04674 8.04672
            CHANNELS 3 Zrotation Xrotation Yrotation
            End Site
            {
              OFFSET 1 0 0
            }
          }
          JOINT rightEye
          {
            OFFSET -3.6576 8.04674 8.04672
            CHANNELS 3 Zrotation Xrotation Yrotation
            End Site
            {
              OFFSET 1 0 0
            }
          }
        }
      }
      JOINT rCollar
      {
        OFFSET -2.68224 19.2634 -4.8768
        CHANNELS 3 Zrotation Xrotation Yrotation
        JOINT rShldr
        {
          OFFSET -8.77824 -1.95073 1.46304
          CHANNELS 3 Zrotation Xrotation Yrotation
          JOINT rForeArm
          {
            OFFSET -28.1742 -1.7115 0.48768
            CHANNELS 3 Zrotation Xrotation Yrotation
            JOINT rHand
            {
              OFFSET -22.5879 0.773209 7.07136
              CHANNELS 3 Zrotation Xrotation Yrotation
              JOINT rThumb1
              {
                OFFSET -1.2192 -0.487915 3.41376
                CHANNELS 3 Zrotation Xrotation Yrotation
                JOINT rThumb2
                {
                  OFFSET -3.37035 -0.52449 3.41376
                  CHANNELS 3 Zrotation Xrotation Yrotation
                  End Site
                  {
                    OFFSET -1.78271 -1.18214 1.43049
                  }
                }
              }
              JOINT rIndex1
              {
                OFFSET -7.75947 0.938293 5.60832
                CHANNELS 3 Zrotation Xrotation Yrotation
                JOINT rIndex2
                {
                  OFFSET -2.54057 -0.884171 1.56538
                  CHANNELS 3 Zrotation Xrotation Yrotation
                  End Site
                  {
                    OFFSET -1.62519 -0.234802 1.16502
                  }
                }
              }
              JOINT rMid1
              {
                OFFSET -8.24714 1.18213 3.41376
                CHANNELS 3 Zrotation Xrotation Yrotation
                JOINT rMid2
                {
                  OFFSET -3.10165 -0.590103 1.0647
                  CHANNELS 3 Zrotation Xrotation Yrotation
                  End Site
                  {
                    OFFSET -2.48547 -0.328903 0.83742
                  }
                }
              }
              JOINT rRing1
              {
                OFFSET -8.82822 0.546677 1.51678
                CHANNELS 3 Zrotation Xrotation Yrotation
                JOINT rRing2
                {
                  OFFSET -2.60934 -0.819778 -0.0198488
                  CHANNELS 3 Zrotation Xrotation Yrotation
                  End Site
                  {
                    OFFSET -2.33842 -0.294052 0.168128
                  }
                }
              }
              JOINT rPinky1
              {
                OFFSET -8.27202 -0.0477905 -0.4584
                CHANNELS 3 Zrotation Xrotation Yrotation
                JOINT rPinky2
                {
                  OFFSET -1.82734 -0.647385 -0.700984
                  CHANNELS 3 Zrotation Xrotation Yrotation
                  End Site
                  {
                    OFFSET -1.69225 -0.51767 -0.607171
                  }
                }
              }
            }
          }
        }
      }
      JOINT lCollar
      {
        OFFSET 2.68224 19.2634 -4.8768
        CHANNELS 3 Zrotation Xrotation Yrotation
        JOINT lShldr
        {
          OFFSET 8.77824 -1.95073 1.46304
          CHANNELS 3 Zrotation Xrotation Yrotation
          JOINT lForeArm
          {
            OFFSET 28.1742 -1.7115 0.48768
            CHANNELS 3 Zrotation Xrotation Yrotation
            JOINT lHand
            {
              OFFSET 22.5879 0.773209 7.07136
              CHANNELS 3 Zrotation Xrotation Yrotation
              JOINT lThumb1
              {
                OFFSET 1.2192 -0.487915 3.41376
                CHANNELS 3 Zrotation Xrotation Yrotation
                JOINT lThumb2
                {
                  OFFSET 3.37035 -0.52449 3.41376
                  CHANNELS 3 Zrotation Xrotation Yrotation
                  End Site
                  {
                    OFFSET 1.78271 -1.18214 1.43049
                  }
                }
              }
              JOINT lIndex1
              {
                OFFSET 7.75947 0.938293 5.60832
                CHANNELS 3 Zrotation Xrotation Yrotation
                JOINT lIndex2
                {
                  OFFSET 2.54057 -0.884171 1.56538
                  CHANNELS 3 Zrotation Xrotation Yrotation
                  End Site
                  {
                    OFFSET 1.62519 -0.234802 1.16502
                  }
                }
              }
              JOINT lMid1
              {
                OFFSET 8.24714 1.18213 3.41376
                CHANNELS 3 Zrotation Xrotation Yrotation
                JOINT lMid2
                {
                  OFFSET 3.10165 -0.590103 1.0647
                  CHANNELS 3 Zrotation Xrotation Yrotation
                  End Site
                  {
                    OFFSET 2.48547 -0.328903 0.83742
                  }
                }
              }
              JOINT lRing1
              {
                OFFSET 8.82822 0.546677 1.51678
                CHANNELS 3 Zrotation Xrotation Yrotation
                JOINT lRing2
                {
                  OFFSET 2.60934 -0.819778 -0.0198488
                  CHANNELS 3 Zrotation Xrotation Yrotation
                  End Site
                  {
                    OFFSET 2.33842 -0.294052 0.168128
                  }
                }
              }
              JOINT lPinky1
              {
                OFFSET 8.27202 -0.0477905 -0.4584
                CHANNELS 3 Zrotation Xrotation Yrotation
                JOINT lPinky2
                {
                  OFFSET 1.82734 -0.647385 -0.700984
                  CHANNELS 3 Zrotation Xrotation Yrotation
                  End Site
                  {
                    OFFSET 1.69225 -0.51767 -0.607171
                  }
                }
              }
            }
          }
        }
      }
    }
  }
  JOINT rButtock
  {
    OFFSET -8.77824 4.35084 1.2192
    CHANNELS 3 Zrotation Xrotation Yrotation
    JOINT rThigh
    {
      OFFSET 0 -1.70687 -2.19456
      CHANNELS 3 Zrotation Xrotation Yrotation
      JOINT rShin
      {
        OFFSET 0 -36.8199 0.73152
        CHANNELS 3 Zrotation Xrotation Yrotation
        JOINT rFoot
        {
          OFFSET 0.73152 -45.1104 -5.12064
          CHANNELS 3 Zrotation Xrotation Yrotation
          End Site
          {
            OFFSET -1.1221 -3.69964 12.103
          }
        }
      }
    }
  }
  JOINT lButtock
  {
    OFFSET 8.77824 4.35084 1.2192
    CHANNELS 3 Zrotation Xrotation Yrotation
    JOINT lThigh
    {
      OFFSET 0 -1.70687 -2.19456
      CHANNELS 3 Zrotation Xrotation Yrotation
      JOINT lShin
      {
        OFFSET 0 -36.8199 0.73152
        CHANNELS 3 Zrotation Xrotation Yrotation
        JOINT lFoot
        {
          OFFSET -0.73152 -45.1104 -5.12064
          CHANNELS 3 Zrotation Xrotation Yrotation
          End Site
          {
            OFFSET 1.1221 -3.69964 12.103
          }
        }
      }
    }
  }
}
MOTION
Frames:	9
Frame Time:	0.00833333
-175.636 85.2982 -10.9868 0.0 0.0 0.0 0.984365 -0.00436088 0.0272517 0.271548 -0.00455331 0.047045 -3.37959e-14 1.59028e-15 1.24239e-17 -1.01992e-13 9.54166e-15 4.65902e-18 -0.0 0.0 0.0 -0.0 0.0 0.0 -1.68487e-14 2.98953e-17 1.49089e-16 -3.54386e-13 1.01877e-15 -3.97569e-16 -6.12386e-12 1.85963e-12 3.49861e-14 -7.01033e-11 -1.69275e-12 -1.145e-13 -1.65361e-10 3.56299e-13 -1.43125e-13 -2.85589e-10 6.13847e-13 -2.38542e-13 -1.65357e-10 3.54632e-13 -1.52667e-13 7.73091 5.47488 0.417314 -1.65363e-10 3.54731e-13 -1.36764e-13 2.90554 0.965183 0.102902 -1.6536e-10 3.55526e-13 -1.43125e-13 10.2786 0.731801 0.0259123 -1.65372e-10 3.61788e-13 -1.36764e-13 2.22167 -0.733487 -0.20892 -1.71446e-14 3.00895e-17 -9.93923e-17 -3.56286e-13 8.07563e-16 -1.98785e-15 -6.12396e-12 -1.81013e-12 6.67917e-14 -7.00911e-11 1.96014e-12 -1.30403e-13 -1.65328e-10 3.23493e-13 -1.33583e-13 -2.85493e-10 5.59778e-13 -2.32976e-13 -1.65328e-10 3.19248e-13 -1.36764e-13 -7.73091 5.47488 -0.417314 -1.65327e-10 3.22628e-13 -1.39944e-13 -2.90554 0.965183 -0.102902 -1.65321e-10 3.22528e-13 -1.39149e-13 -10.2786 0.731801 -0.0259123 -1.65314e-10 3.29187e-13 -1.49486e-13 -2.22167 -0.733487 0.20892 -2.03217e-16 0.0 -3.88251e-19 1.24868 -5.45299 -0.109157 7.01843e-05 4.32237 0.0238889 -0.510529 1.1295 0.0812164 2.03217e-16 0.0 3.88251e-19 0.249532 -1.91924 0.0129255 0.00928466 -2.07855 0.0766932 0.4964 3.99654 -0.137966
-168.117 84.1372 -19.4915 66.6682 83.928 66.0974 -0.825097 0.366563 1.31997 1.1667 1.63825 0.386402 3.92092 2.97651 4.97905 -5.7172 0.987816 10.2111 -0.0 0.0 0.0 -0.0 0.0 0.0 -2.54778e-14 -1.08055e-12 4.7857e-14 21.9256 4.89382 1.02894 -3.65586 -1.56287 5.81226 0.00666074 -1.81059 -0.254002 2.30507e-10 2.78235e-10 5.46634e-10 3.97199e-10 4.8191e-10 9.45795e-10 2.30511e-10 2.78234e-10 5.46625e-10 7.73091 5.47488 0.417314 2.30505e-10 2.78234e-10 5.46644e-10 2.90554 0.965183 0.102902 2.30507e-10 2.78235e-10 5.46635e-10 10.2786 0.731801 0.0259123 2.30498e-10 2.7824e-10 5.46641e-10 2.22167 -0.733487 -0.20892 -2.57343e-14 -1.08055e-12 4.76109e-14 -22.8419 7.3063 -2.12288 3.33464 -1.37363 -5.35197 -0.00291423 -1.1975 0.168165 2.08457e-10 2.74962e-10 -4.14664e-10 3.60097e-10 4.76799e-10 -7.15843e-10 2.08456e-10 2.74959e-10 -4.14667e-10 -7.73091 5.47488 -0.417314 2.08457e-10 2.74961e-10 -4.1467e-10 -2.90554 0.965183 -0.102902 2.0846e-10 2.74962e-10 -4.1467e-10 -10.2786 0.731801 -0.0259123 2.08469e-10 2.74967e-10 -4.14679e-10 -2.22167 -0.733487 0.20892 -2.03217e-16 0.0 -3.88251e-19 -1.10873 -6.80821 0.202139 0.0559995 11.9053 0.233987 -2.07466 -7.1498 -7.99132 2.03217e-16 0.0 3.88251e-19 -0.819135 -3.20212 -1.40651 -0.0374548 6.35142 -0.116554 1.14891 -2.65164 4.63541
-168.122 84.2404 -19.4548 64.8718 83.9084 64.3258 -2.7608 0.75493 2.69279 2.09026 3.37956 0.747834 7.50452 6.04522 10.2863 -12.1364 1.92325 21.0127 -0.0 0.0 0.0 -0.0 0.0 0.0 -3.46606e-14 -2.28842e-12 1.01868e-13 44.9076 10.0606 2.14087 -7.17642 -3.16054 11.9683 -0.00379162 -3.72663 -0.523661 6.5277e-10 5.88327e-10 1.14287e-09 1.12549e-09 1.01906e-09 1.97735e-09 6.52774e-10 5.88327e-10 1.14286e-09 7.73091 5.47488 0.417314 6.52767e-10 5.88327e-10 1.14288e-09 2.90554 0.965183 0.102902 6.5277e-10 5.88327e-10 1.14287e-09 10.2786 0.731801 0.0259123 6.52764e-10 5.88331e-10 1.14287e-09 2.22167 -0.733487 -0.20892 -3.4879e-14 -2.28842e-12 1.01626e-13 -46.3842 14.9971 -4.48744 6.58231 -2.7859 -11.0199 0.00165426 -2.46298 0.346126 6.00573e-10 5.87521e-10 -8.67184e-10 1.03729e-09 1.01879e-09 -1.49705e-09 6.0057e-10 5.87519e-10 -8.67186e-10 -7.73091 5.47488 -0.417314 6.00572e-10 5.8752e-10 -8.67189e-10 -2.90554 0.965183 -0.102902 6.00572e-10 5.87521e-10 -8.67189e-10 -10.2786 0.731801 -0.0259123 6.00582e-10 5.87525e-10 -8.67198e-10 -2.22167 -0.733487 0.20892 -2.03217e-16 0.0 -3.88251e-19 -3.59195 -8.23724 0.529077 0.0509236 19.9267 0.474265 -6.31076 -15.3732 -17.0213 2.03217e-16 0.0 3.88251e-19 -2.02494 -4.54465 -2.91371 -0.0232923 15.2568 -0.330865 3.05056 -9.55458 9.80924
-168.107 84.2123 -19.4174 63.0832 83.882 62.4686 -4.4942 1.10613 3.90606 2.89844 4.92312 1.06858 10.2153 8.65886 15.093 -18.153 2.59073 30.6635 -0.0 0.0 0.0 -0.0 0.0 0.0 -4.27359e-14 -3.24171e-12 1.43273e-13 65.2347 14.6622 3.1792 -10.0302 -4.49595 17.4858 -0.0283611 -5.43133 -0.765061 1.02224e-09 8.33993e-10 1.64019e-09 1.76278e-09 1.4445e-09 2.83786e-09 1.02225e-09 8.33993e-10 1.64018e-09 7.73091 5.47488 0.417314 1.02224e-09 8.33993e-10 1.6402e-09 2.90554 0.965183 0.102902 1.02224e-09 8.33993e-10 1.64019e-09 10.2786 0.731801 0.0259123 1.02224e-09 8.33996e-10 1.6402e-09 2.22167 -0.733487 -0.20892 -4.29136e-14 -3.24171e-12 1.43031e-13 -66.7991 21.7938 -6.80537 9.2437 -3.97729 -16.0911 0.0123805 -3.59237 0.505377 9.56028e-10 8.2424e-10 -1.24373e-09 1.65128e-09 1.42928e-09 -2.14706e-09 9.56024e-10 8.24239e-10 -1.24373e-09 -7.73091 5.47488 -0.417314 9.56026e-10 8.24239e-10 -1.24373e-09 -2.90554 0.965183 -0.102902 9.56024e-10 8.2424e-10 -1.24373e-09 -10.2786 0.731801 -0.0259123 9.56036e-10 8.24242e-10 -1.24374e-09 -2.22167 -0.733487 0.20892 -2.03217e-16 0.0 -3.88251e-19 -5.77879 -9.51778 0.830905 -0.0176234 27.0695 0.717862 -12.408 -21.7467 -25.914 2.03217e-16 0.0 3.88251e-19 -3.14784 -5.75493 -4.26029 0.0507058 23.2105 -0.544905 5.83593 -15.4759 14.7113
-168.134 84.201 -19.3775 61.0779 83.8456 60.5222 -5.68673 1.36658 4.71983 3.46033 5.97303 1.28428 11.8312 10.3919 18.5001 -22.4875 2.9393 37.4092 -0.0 0.0 0.0 -0.0 0.0 0.0 -4.80424e-14 -3.55854e-12 1.53164e-13 79.3112 17.8692 3.94604 -11.871 -5.35858 21.3603 -0.0538568 -6.60806 -0.932884 1.25973e-09 9.18595e-10 1.89024e-09 2.17253e-09 1.59069e-09 3.27079e-09 1.25974e-09 9.18595e-10 1.89023e-09 7.73091 5.47488 0.417314 1.25973e-09 9.18595e-10 1.89026e-09 2.90554 0.965183 0.102902 1.25973e-09 9.18595e-10 1.89024e-09 10.2786 0.731801 0.0259123 1.25973e-09 9.18597e-10 1.89025e-09 2.22167 -0.733487 -0.20892 -4.81726e-14 -3.55854e-12 1.52915e-13 -80.6533 26.4745 -8.59105 10.9718 -4.75326 -19.637 0.0236046 -4.38165 0.617016 1.21983e-09 8.71357e-10 -1.43032e-09 2.10724e-09 1.51104e-09 -2.46909e-09 1.21983e-09 8.71357e-10 -1.43032e-09 -7.73091 5.47488 -0.417314 1.21983e-09 8.71357e-10 -1.43033e-09 -2.90554 0.965183 -0.102902 1.21983e-09 8.71358e-10 -1.43033e-09 -10.2786 0.731801 -0.0259123 1.21984e-09 8.71359e-10 -1.43034e-09 -2.22167 -0.733487 0.20892 -2.03217e-16 0.0 -3.88251e-19 -7.25524 -10.4278 1.06527 -0.107699 32.0173 0.912462 -17.9659 -25.3852 -32.7098 2.03217e-16 0.0 3.88251e-19 -3.93019 -6.64595 -5.19305 0.143096 28.7861 -0.716527 8.42219 -19.4133 18.3732
-168.167 84.2033 -19.3502 59.9139 83.8563 59.4023 -6.10484 1.49684 4.96096 3.69767 6.32837 1.34693 12.39 11.0719 19.8535 -24.2199 3.08069 40.0801 -0.0 0.0 0.0 -0.0 0.0 0.0 -5.3129e-14 -2.98196e-12 1.1356e-13 84.8309 19.0888 4.27371 -12.5626 -5.6797 22.8904 -0.0643882 -6.98956 -0.987611 1.35993e-09 7.31709e-10 1.84536e-09 2.34537e-09 1.26588e-09 3.19398e-09 1.35993e-09 7.3171e-10 1.84535e-09 7.73091 5.47488 0.417314 1.35992e-09 7.31709e-10 1.84537e-09 2.90554 0.965183 0.102902 1.35993e-09 7.31709e-10 1.84536e-09 10.2786 0.731801 0.0259123 1.35992e-09 7.31711e-10 1.84537e-09 2.22167 -0.733487 -0.20892 -5.31936e-14 -2.98196e-12 1.1329e-13 -85.9651 28.2955 -9.30259 11.621 -5.0425 -21.0281 0.029063 -4.70817 0.663297 1.43567e-09 6.13189e-10 -1.38239e-09 2.48093e-09 1.06347e-09 -2.38608e-09 1.43566e-09 6.1319e-10 -1.38239e-09 -7.73091 5.47488 -0.417314 1.43567e-09 6.13189e-10 -1.38239e-09 -2.90554 0.965183 -0.102902 1.43566e-09 6.13189e-10 -1.38239e-09 -10.2786 0.731801 -0.0259123 1.43568e-09 6.1319e-10 -1.3824e-09 -2.22167 -0.733487 0.20892 -2.03217e-16 0.0 -3.88251e-19 -7.74973 -10.8282 1.19341 -0.152678 33.8851 0.994271 -20.4477 -26.581 -35.5499 2.03217e-16 0.0 3.88251e-19 -4.17341 -7.11762 -5.53958 0.190934 31.0457 -0.792734 9.5963 -20.945 19.8636
-168.211 84.2124 -19.3269 59.1518 83.9136 58.6742 -5.96593 1.53476 4.79354 3.70697 6.18789 1.29985 12.3033 11.0523 19.7136 -24.0418 3.14227 39.8383 -0.0 0.0 0.0 -0.0 0.0 0.0 -5.78846e-14 -1.76734e-12 3.88593e-14 84.2842 18.8951 4.2678 -12.496 -5.6509 22.739 -0.0608927 -6.80579 -0.961379 1.35978e-09 3.53093e-10 1.58737e-09 2.34511e-09 6.08454e-10 2.74884e-09 1.35979e-09 3.53094e-10 1.58736e-09 7.73091 5.47488 0.417314 1.35978e-09 3.53093e-10 1.58738e-09 2.90554 0.965183 0.102902 1.35978e-09 3.53094e-10 1.58737e-09 10.2786 0.731801 0.0259123 1.35978e-09 3.53096e-10 1.58738e-09 2.22167 -0.733487 -0.20892 -5.78709e-14 -1.76734e-12 3.8558e-14 -85.344 28.1013 -9.14716 11.5502 -5.01113 -20.8745 0.0288331 -4.70352 0.66263 1.61342e-09 1.38856e-10 -1.16543e-09 2.78922e-09 2.41095e-10 -2.0112e-09 1.61341e-09 1.38858e-10 -1.16543e-09 -7.73091 5.47488 -0.417314 1.61342e-09 1.38857e-10 -1.16543e-09 -2.90554 0.965183 -0.102902 1.61341e-09 1.38856e-10 -1.16544e-09 -10.2786 0.731801 -0.0259123 1.61342e-09 1.38856e-10 -1.16544e-09 -2.22167 -0.733487 0.20892 -2.03217e-16 0.0 -3.88251e-19 -7.54666 -10.8645 1.2453 -0.144895 33.5539 0.981641 -20.2173 -26.4563 -35.3214 2.03217e-16 0.0 3.88251e-19 -4.01646 -7.29096 -5.46507 0.187042 30.9364 -0.788231 9.48374 -20.8694 19.6754
-168.273 84.2095 -19.3085 58.7255 84.0151 58.3382 -5.60638 1.54321 4.48337 3.62183 5.85538 1.21481 11.9583 10.7536 18.9738 -23.0877 3.16783 38.4242 -0.0 0.0 0.0 -0.0 0.0 0.0 -5.66572e-14 -3.01315e-13 -4.12816e-14 81.2957 18.2134 4.12019 -12.1392 -5.4915 21.9401 -0.0535206 -6.48612 -0.915669 1.24356e-09 -2.86191e-11 1.16215e-09 2.14499e-09 -5.39648e-11 2.01414e-09 1.24356e-09 -2.86168e-11 1.16213e-09 7.73091 5.47488 0.417314 1.24356e-09 -2.86181e-11 1.16215e-09 2.90554 0.965183 0.102902 1.24356e-09 -2.86177e-11 1.16215e-09 10.2786 0.731801 0.0259123 1.24355e-09 -2.86148e-11 1.16215e-09 2.22167 -0.733487 -0.20892 -5.65742e-14 -3.01315e-13 -4.16128e-14 -82.3525 27.0825 -8.65929 11.1898 -4.85058 -20.1004 0.0260114 -4.54512 0.640165 1.64738e-09 -3.58191e-10 -8.30646e-10 2.84905e-09 -6.20637e-10 -1.4329e-09 1.64738e-09 -3.58187e-10 -8.30644e-10 -7.73091 5.47488 -0.417314 1.64738e-09 -3.58189e-10 -8.30645e-10 -2.90554 0.965183 -0.102902 1.64737e-09 -3.5819e-10 -8.30653e-10 -10.2786 0.731801 -0.0259123 1.64739e-09 -3.58191e-10 -8.3066e-10 -2.22167 -0.733487 0.20892 -2.03217e-16 0.0 -3.88251e-19 -7.06719 -10.741 1.28123 -0.11676 32.3553 0.932195 -18.8944 -25.8395 -33.8302 2.03217e-16 0.0 3.88251e-19 -3.70203 -7.31268 -5.22085 0.161785 29.8593 -0.750605 8.85432 -20.1343 18.825
-168.32 84.1857 -19.2815 58.0211 84.0582 57.7801 -5.36297 1.58503 4.29629 3.57696 5.63468 1.16342 11.7339 10.5925 18.5296 -22.5031 3.1902 37.579 -0.0 0.0 0.0 -0.0 0.0 0.0 -4.37949e-14 1.02947e-12 -9.72057e-14 79.4868 17.9686 4.02355 -11.9576 -5.41895 21.5278 -0.0514566 -6.45994 -0.911791 9.95502e-10 -2.24792e-10 6.15565e-10 1.71827e-09 -3.93759e-10 1.06866e-09 9.95505e-10 -2.2479e-10 6.15545e-10 7.73091 5.47488 0.417314 9.95502e-10 -2.24791e-10 6.15561e-10 2.90554 0.965183 0.102902 9.95507e-10 -2.2479e-10 6.1556e-10 10.2786 0.731801 0.0259123 9.95499e-10 -2.24787e-10 6.15561e-10 2.22167 -0.733487 -0.20892 -4.36732e-14 1.02947e-12 -9.75536e-14 -80.5515 26.4302 -8.37565 10.9683 -4.75095 -19.6303 0.0239158 -4.41037 0.621076 1.43187e-09 -6.845e-10 -4.29229e-10 2.47735e-09 -1.18629e-09 -7.39682e-10 1.43187e-09 -6.84496e-10 -4.29225e-10 -7.73091 5.47488 -0.417314 1.43187e-09 -6.84498e-10 -4.29225e-10 -2.90554 0.965183 -0.102902 1.43186e-09 -6.845e-10 -4.29235e-10 -10.2786 0.731801 -0.0259123 1.43188e-09 -6.845e-10 -4.29241e-10 -2.22167 -0.733487 0.20892 -2.03217e-16 0.0 -3.88251e-19 -6.73132 -10.6618 1.36172 -0.100756 31.6212 0.903557 -18.127 -25.5294 -32.8934 2.03217e-16 0.0 3.88251e-19 -3.4769 -7.32916 -5.05899 0.147417 29.2157 -0.728715 8.49528 -19.6819 18.3388
